<svg width="76" height="76" viewBox="0 0 76 76" fill="none" xmlns="http://www.w3.org/2000/svg">
<path fill-rule="evenodd" clip-rule="evenodd" d="M69.9828 58.5293C73.7909 52.6089 76 45.5624 76 38C76 17.0132 58.9868 0 38 0C17.0132 0 0 17.0132 0 38C0 58.9868 17.0132 76 38 76C50.9207 76 62.3352 69.5514 69.2008 59.6971C68.7191 59.8954 68.0003 60 67 60C66.0255 60 64.8439 60.0302 63.4996 60.0645C50.3691 60.4 21.7214 61.1318 19 38C19 27.5066 27.5066 19 38 19C48.4934 19 57 27.5066 57 38C57 43.1241 61.8866 48.4897 65.6657 52.6392C67.962 55.1607 69.8494 57.233 69.9828 58.5293Z" fill="#0F3950"/>
</svg>
