<svg width="401" height="187" viewBox="0 0 401 187" fill="none" xmlns="http://www.w3.org/2000/svg">
<rect width="401" height="187" fill="#F3F3F3"/>
<g opacity="0.2">
<path fill-rule="evenodd" clip-rule="evenodd" d="M262.332 136.219C270.349 123.755 275 108.921 275 93C275 48.8172 239.183 13 195 13C150.817 13 115 48.8172 115 93C115 137.183 150.817 173 195 173C222.201 173 246.232 159.424 260.686 138.678C259.671 139.096 258.158 139.316 256.053 139.316C254.001 139.316 251.514 139.379 248.683 139.452C221.04 140.158 160.729 141.699 155 93.0001C155 70.9088 172.909 53.0001 195 53.0001C217.092 53.0001 235 70.9088 235 93.0001C235 103.788 245.288 115.084 253.244 123.82C258.078 129.128 262.051 133.49 262.332 136.219Z" fill="#488FF9"/>
</g>
</svg>
